<?xml version="1.0" encoding="utf-8" ?><svg xmlns="http://www.w3.org/2000/svg" xmlns:xlink="http://www.w3.org/1999/xlink" width="1024" height="1024" viewBox="0 0 1024 1024"><path d="M517.6 33.7483C653.607 31.0608 793.242 75.1222 881.768 183.067C965.435 285.861 993.337 416.895 981.587 546.042C961.49 766.925 798.945 954.252 572.117 971.495C549.913 973.183 522.885 975.816 500.625 973.625C466.9 973.005 420.611 965.704 387.545 958.514C277.002 935.548 180.331 869.111 119.27 774.144C87.3298 724.174 65.5098 668.42 55.0474 610.044C51.9612 592.632 49.9678 572.637 48.6994 555.027C45.026 505.945 48.4283 456.59 58.802 408.476C53.0659 406.876 43.563 403.88 43.3208 396.622C42.9589 385.776 41.8774 365.934 47.2561 356.489C50.2191 351.287 68.204 350.953 74.6112 350.22C76.7985 343.29 79.8959 335.793 82.5148 328.922C104.338 271.145 137.297 218.218 179.521 173.146C246.834 102.255 341.818 51.7482 438.773 37.9978C454.696 35.8124 470.722 34.4468 486.785 33.9063C496.991 33.637 507.248 34.0134 517.6 33.7483Z"/><path fill="#222" d="M55.1082 398.894C53.2252 397.895 52.388 397.84 51.7134 395.462C50.0884 387.387 50.4608 370.407 53.0872 363.351C54.3885 359.855 73.8883 359.181 77.6922 358.875C126.49 354.948 175.923 356.202 224.675 360.566C269.393 364.57 327.502 367.512 360.826 401.484C369.887 409.381 373.078 419.515 376.97 430.11C401.232 428.401 425.988 427.366 449.981 431.734C474.787 396.94 491.456 387.57 533.767 381.779C563.429 377.719 589.684 377.135 619.573 377.907C663.389 378.688 707.053 383.302 750.065 391.695C765.219 394.584 786.522 398.456 800.555 404.832C804.603 406.998 805.97 409.808 807.046 413.72C808.163 417.78 811.25 436.847 808.936 439.462C802.388 446.864 782.704 439.593 775.521 452.523C766.222 469.261 766.779 485.204 764.22 503.432C761.2 522.912 757.357 547.078 750.822 565.608C734.338 612.352 702.097 643.155 652.793 653.454C606.555 663.112 550.816 659.77 509.777 634.477C495.997 625.985 479.066 610.634 470.014 597.469C469.269 596.386 467.079 593.048 466.743 591.853C452.749 570.637 443.534 528.168 445.476 502.646C445.195 494.634 445.486 485.635 445.584 477.547C444.95 473.923 444.966 468.194 444.359 465.054C442.092 453.338 417.012 454.058 407.535 452.665C401.679 451.804 388.496 452.331 383.499 454.315L383.259 454.969C380.146 463.747 380.059 485.851 378.831 497.072C372.45 555.39 350.722 600.069 296.035 626.706C258.055 645.206 211.261 643.704 172.34 628.922C154.451 622.128 126.871 613.114 115.324 595.796C115.285 595.682 115.246 595.568 115.207 595.454C105.615 585.032 94.8284 565.419 90.675 552.201C76.0119 505.536 72.7767 453.318 71.5458 404.878C67.4376 400.217 60.8821 399.563 55.1082 398.894Z"/><path fill="#5A4C44" d="M449.981 431.734C474.787 396.94 491.456 387.57 533.767 381.779C563.429 377.719 589.684 377.135 619.573 377.907C663.389 378.688 707.053 383.302 750.065 391.695C765.219 394.584 786.522 398.456 800.555 404.832C795.322 405.177 784.169 402.757 778.757 401.589C707.116 386.126 633.406 377.101 560.06 382.264C512.429 385.618 480.308 392.829 452.761 435.31C444.76 433.815 436.428 432.014 428.281 431.73C417.633 431.36 406.857 432.3 396.215 432.623C392.019 432.75 380.581 434.144 377.665 431.674C377.509 431.337 377.058 430.425 376.97 430.11C401.232 428.401 425.988 427.366 449.981 431.734Z"/><path fill="#5A4C44" d="M55.1082 398.894C53.2252 397.895 52.388 397.84 51.7134 395.462C50.0884 387.387 50.4608 370.407 53.0872 363.351C54.3885 359.855 73.8883 359.181 77.6922 358.875C126.49 354.948 175.923 356.202 224.675 360.566C269.393 364.57 327.502 367.512 360.826 401.484L359.431 401.206C356.383 398.206 352.487 395.738 348.977 393.302C295.547 356.213 121.051 353.939 57.7975 365.286C56.5005 371.689 57.041 396.766 55.1082 398.894Z"/><path fill="#5A4C44" d="M71.5458 404.878C72.2999 405.643 73.1724 406.539 73.3948 407.638C76.1712 421.353 75.1041 437.226 76.4056 451.127C79.976 489.262 85.2739 527.415 97.7601 563.746C100.699 572.298 113.999 590.741 115.207 595.454C105.615 585.032 94.8284 565.419 90.675 552.201C76.0119 505.536 72.7767 453.318 71.5458 404.878Z"/><path fill="#5A4C44" d="M446.609 497.792C449.174 524.432 448.867 548.27 459.311 573.771C460.787 577.376 466.675 588.954 466.743 591.853C452.749 570.637 443.534 528.168 445.476 502.646C446.482 501.041 446.418 499.695 446.609 497.792Z"/><path fill="#695850" d="M445.584 477.547C447.075 480.068 446.577 494.022 446.609 497.792C446.418 499.695 446.482 501.041 445.476 502.646C445.195 494.634 445.486 485.635 445.584 477.547Z"/><path d="M526.23 628.776C503.055 616.076 485.273 599.802 473.399 575.812C456.89 542.458 450.17 483.768 462.392 448.314C468.2 431.463 479.708 416.545 495.933 408.702C505.877 403.895 516.851 401.429 527.718 399.765C566.908 393.763 670.502 392.623 708.215 405.922C725.891 412.155 732.861 420.583 740.826 437.144C743.684 438.76 744.897 443.925 745.737 446.92C755.908 483.194 746.176 552.734 727.562 585.848C711.759 613.963 682.779 633.959 651.945 642.376C643.609 644.705 635.047 646.13 626.407 646.624C612.793 647.419 530.966 643.393 526.23 628.776Z"/><path fill="#5A4C44" d="M740.826 437.144C743.684 438.76 744.897 443.925 745.737 446.92C755.908 483.194 746.176 552.734 727.562 585.848C711.759 613.963 682.779 633.959 651.945 642.376C643.609 644.705 635.047 646.13 626.407 646.624C612.793 647.419 530.966 643.393 526.23 628.776C568.54 643.218 617.379 648.883 660.982 635.694C690.006 626.914 713.102 604.818 726.383 578.004C738.208 554.129 742.394 531.439 744.759 505.122C746.962 480.602 748.779 461.37 740.826 437.144Z"/><defs><linearGradient id="gradient_0" gradientUnits="userSpaceOnUse" x1="518.95471" y1="402.85452" x2="693.35144" y2="604.76453"><stop offset="0" stop-color="#C86B18"/><stop offset="1" stop-color="#FFAC2D"/></linearGradient></defs><path fill="url(#gradient_0)" d="M585.721 404.728C604.354 403.998 624.672 404.751 643.516 406.113C668.076 407.888 700.342 407.864 720.775 423.212C730.879 430.801 736.585 448.793 737.353 460.879C739.659 497.146 734.592 535.278 721.31 569.196C718.5 576.274 710.169 588.881 705.445 594.421C682.743 621.043 652.82 630.31 619.39 633.155C607.821 634.187 597.901 633.122 586.532 632.249C556.241 629.923 529.974 622.522 506.906 601.857C477.788 575.773 469.38 539.016 467.545 501.581C466.386 476.875 470.315 448.531 487.621 429.566C510.787 404.181 553.87 405.831 585.721 404.728Z"/><path d="M530.921 433.699C558.301 419.606 585.575 414.936 615.459 424.644C638.192 432.029 659.643 453.388 670.213 474.417C683.102 500.503 685.066 530.649 675.668 558.186C657.309 612.504 596.477 637.926 543.305 619.428C520.918 611.677 502.584 595.255 492.424 573.852C480.661 549.307 480.509 517.733 487.979 491.89C487.376 491.781 487.366 491.626 486.793 491.181C486.223 483.409 492.708 464.301 496.569 457.075C503.404 444.284 511.191 437.992 525.1 433.93C527.146 433.332 529.055 432.683 530.921 433.699Z"/><path fill="#F7A227" d="M487.979 491.89C487.376 491.781 487.366 491.626 486.793 491.181C486.223 483.409 492.708 464.301 496.569 457.075C503.404 444.284 511.191 437.992 525.1 433.93C527.146 433.332 529.055 432.683 530.921 433.699C506.455 450.163 497.67 464.319 487.979 491.89Z"/><path fill="#FEFEFE" d="M577.812 435.696C597.099 433.981 616.296 439.845 631.333 452.044C649.449 466.493 661.96 489.271 664.281 512.274C669.405 563.047 637.171 602.992 586.625 608.455C502.048 612.494 473.648 527.385 519.109 464.356C532.748 445.448 555.424 438.19 577.812 435.696Z"/><path d="M558.63 495.679C566.52 495.375 575.646 498.538 581.927 503.198C610.484 524.389 606.818 576.61 571.658 588.949C567.748 590.321 564.489 590.853 560.402 591.416C551.229 591.505 542.282 588.572 534.942 583.071C504.049 559.559 515.839 500.833 558.63 495.679Z"/><path fill="#FEFEFE" d="M574.146 517.743C579.101 516.442 584.169 519.417 585.448 524.378C586.727 529.338 583.729 534.393 578.762 535.649C573.828 536.897 568.813 533.922 567.542 528.994C566.272 524.065 569.223 519.037 574.146 517.743Z"/><path d="M131.139 592.747C129.263 589.51 124.954 586.495 122.385 583.631C116.38 576.937 111.81 568.203 108.148 560.057C89.2962 518.121 81.1406 448.068 97.8349 404.522C101.891 393.943 108.305 384.146 119.016 379.452C152.213 364.903 287.222 381.826 320.363 395.19C340.286 403.224 353.766 414.864 362.233 434.634C363.73 435.201 363.61 434.794 364.177 436.427C376.803 472.824 368.273 517.234 355.445 552.241C327.632 628.146 240.079 645.19 171.701 617.931C163.783 614.774 131.958 600.267 131.139 592.747Z"/><path fill="#5A4C44" d="M362.233 434.634C363.73 435.201 363.61 434.794 364.177 436.427C376.803 472.824 368.273 517.234 355.445 552.241C327.632 628.146 240.079 645.19 171.701 617.931C163.783 614.774 131.958 600.267 131.139 592.747C136.003 597.143 141.32 601.011 147.001 604.284C180.156 623.599 234.527 632.049 271.573 621.727C296.807 615.484 330.405 593.13 342.587 569.389C362.406 530.765 373.989 477.017 362.233 434.634Z"/><path fill="#FEFEFE" d="M268.018 428.691C285.753 427.521 303.31 432.824 317.432 443.617C353.557 470.901 358.112 535.195 330.945 570.055C317.766 586.966 301.912 592.825 281.196 595.409C262.351 595.831 246.678 591.681 231.49 580.098C183.681 543.638 189.727 454.245 249.058 432.79C255.356 430.512 261.381 429.504 268.018 428.691Z"/><path d="M293.129 487.657C300.162 486.903 309.851 490.198 315.335 494.617C338.161 513.009 336.126 559.719 309.939 574.275C305.077 576.977 299.412 577.777 293.978 578.318C285.948 577.597 279.396 576.13 272.673 571.294C252.178 556.546 250.218 523.52 264.547 503.923C271.866 493.914 281.157 489.467 293.129 487.657Z"/><path fill="#FEFEFE" d="M308.809 506.474C312.759 506.325 315.665 506.614 318.241 510.031C319.641 511.916 320.201 514.294 319.792 516.605C319.162 520.278 317.303 521.774 314.432 523.731C302.533 524.841 300.358 514.285 308.809 506.474Z"/><path fill="#F7A227" d="M155.075 382.547C168.415 382.334 189.028 383.619 202.725 384.849C237.697 388.313 274.252 390.261 307.978 400.696C338.812 410.237 356.784 428.48 358.503 461.132C358.552 468.709 358.549 474.395 357.729 481.892C353.224 466.072 349.124 458.443 340.152 445.076C336.31 441.14 330.649 434.599 326.61 431.422C306.526 415.626 283.382 411.514 258.486 414.261C231.693 420.583 214.56 430.779 199.795 454.821C184.914 479.532 180.469 509.146 187.439 537.138C196.158 573.097 223.029 602.698 260.33 609.157C262.937 609.608 266.668 610.527 269.23 610.523L271.194 612.718C269.057 613.219 266.911 613.682 264.757 614.108C226.753 621.388 180.165 613.339 148.065 591.335C144.197 588.837 141.178 586.213 137.706 583.209C135.447 568.573 132.507 555.495 131.139 540.643C126.66 486.798 134.858 432.653 155.075 382.547Z"/><path fill="#CC6F16" d="M155.075 382.547C168.415 382.334 189.028 383.619 202.725 384.849C237.697 388.313 274.252 390.261 307.978 400.696C338.812 410.237 356.784 428.48 358.503 461.132C358.552 468.709 358.549 474.395 357.729 481.892C353.224 466.072 349.124 458.443 340.152 445.076C336.31 441.14 330.649 434.599 326.61 431.422C306.526 415.626 283.382 411.514 258.486 414.261C254.689 410.374 215.647 407.459 208.106 407.378C194.611 407.234 179.544 408.55 165.928 408.995C161.719 418.406 158.45 431.753 155.893 441.803C142.573 494.147 142.84 538.359 148.065 591.335C144.197 588.837 141.178 586.213 137.706 583.209C135.447 568.573 132.507 555.495 131.139 540.643C126.66 486.798 134.858 432.653 155.075 382.547Z"/><path fill="#F7A227" d="M340.152 445.076C344.431 443.669 356.604 457.522 358.503 461.132C358.552 468.709 358.549 474.395 357.729 481.892C353.224 466.072 349.124 458.443 340.152 445.076Z"/><path fill="#CC6F16" d="M117.964 553.34C106.44 528.039 101.118 499.546 99.7097 471.751C98.5621 449.095 99.5137 411.012 115.133 393.464C122.289 385.425 131.523 383.862 141.722 383.344C137.941 394.664 134.004 406.398 130.88 417.907C120.373 457.141 116.092 493.916 119.557 534.514C120.365 543.987 121.183 554.091 122.884 563.436C120.9 559.892 119.621 557.068 117.964 553.34Z"/><path fill="#F7A227" d="M117.964 553.34C120.195 546.338 113.46 524.931 113.09 514.832C111.998 484.353 111.222 452.819 117.413 422.839C118.526 417.453 126.674 416.382 130.88 417.907C120.373 457.141 116.092 493.916 119.557 534.514C120.365 543.987 121.183 554.091 122.884 563.436C120.9 559.892 119.621 557.068 117.964 553.34Z"/><path fill="#FCC563" d="M269.23 610.523L277.73 611.361L271.194 612.718L269.23 610.523Z"/><path fill="#F7A227" d="M88.0124 349.447C92.1846 336.971 98.4 321.928 103.676 309.865C149.915 202.623 237.075 118.294 345.785 75.6202C444.594 37.1778 550.616 35.3805 648.289 78.4445C745.805 122.54 822.278 202.93 861.451 302.525C909.202 419.698 907.421 561.11 858.451 677.608C812.312 787.818 724.665 875.451 614.447 921.572C517.818 961.693 409.156 961.497 312.673 921.027C253.338 895.999 200.908 857.043 159.819 807.457C156.781 804.448 153.192 799.82 150.528 796.384C71.8953 694.941 48.2749 570.718 64.4636 445.319C65.6093 451.397 66.1187 461.505 66.7539 467.992C67.9537 479.14 69.3037 490.272 70.8034 501.384C73.0644 510.493 73.9182 519.893 75.9989 529.093C81.8329 554.891 90.5548 580.388 108.447 600.505C115.59 608.535 122.636 614.217 131.265 620.391C132.302 628.268 138.29 645.783 140.924 653.302C158.887 706.057 189.296 753.709 229.577 792.223C372.753 928.679 585.565 914.321 719.879 773.783C799.993 689.956 837.038 587.436 833.892 471.81C833.28 463.819 833.238 457.402 832.332 449.201C846.677 443.813 847.471 433.381 847.541 419.864C844.679 403.26 840.768 402.164 825.241 398.768C820.639 377.145 815.8 358.657 808.033 337.932C775.938 252.283 707.308 177.57 623.739 139.906C544.588 104.663 454.777 101.848 373.575 132.066C269.702 171.493 200.216 247.306 155.091 347.499C137.536 347.527 116.706 347.463 99.2482 349.004C95.2967 349.329 91.9861 349.403 88.0124 349.447Z"/><path fill="#FCC563" d="M88.0124 349.447C92.1846 336.971 98.4 321.928 103.676 309.865C149.915 202.623 237.075 118.294 345.785 75.6202C444.594 37.1778 550.616 35.3805 648.289 78.4445C745.805 122.54 822.278 202.93 861.451 302.525C859.914 303.478 860.661 303.417 859.186 303.072C856.388 299.854 855.915 295.551 854.14 292.137C850.443 285.029 847.189 277.768 843.517 270.66C836.138 256.356 827.904 242.509 818.86 229.196C783.123 176.609 744.352 138.725 689.478 105.98C540.52 17.0938 354.328 50.2843 226.559 161.708C175.881 205.879 135.9 260.984 109.632 322.865C107.201 328.682 100.865 343.47 99.2482 349.004C95.2967 349.329 91.9861 349.403 88.0124 349.447Z"/><path fill="#FCC563" d="M64.4636 445.319C65.6093 451.397 66.1187 461.505 66.7539 467.992C67.9537 479.14 69.3037 490.272 70.8034 501.384C68.0958 503.768 67.6984 505.656 67.7118 509.264C68.0413 597.451 86.9874 687.119 132.504 763.413C141.161 777.925 151.353 790.794 160.413 804.989C160.632 805.33 160.142 806.846 159.819 807.457C156.781 804.448 153.192 799.82 150.528 796.384C71.8953 694.941 48.2749 570.718 64.4636 445.319Z"/><path fill="#CC6F16" d="M847.541 419.864C848.409 423.172 850.03 426.24 851.193 429.502C854.899 439.894 855.701 451.393 852.958 462.118C847.358 468.457 841.828 469.438 833.892 471.81C833.28 463.819 833.238 457.402 832.332 449.201C846.677 443.813 847.471 433.381 847.541 419.864Z"/><path fill="#F7A227" d="M484.597 626.143C524.463 658.525 562.139 666.933 612.354 666.721C707.611 666.319 758.405 611.385 772.219 520.444C773.649 510.428 774.893 500.386 775.952 490.324C780.422 449.543 781.762 450.6 821.447 450.329C821.836 458.095 822.024 465.869 822.01 473.644C821.791 558.96 806.349 631.301 759.754 703.787C744.877 727.313 727.434 749.115 707.745 768.791C641.933 834.273 554.545 875.52 460.866 875.183C374.027 874.87 293.114 838.956 232.237 777.604C194.568 739.642 163.264 689.593 148.659 637.919C147.485 634.788 146.452 631.086 145.471 627.848C166.374 636.079 185.894 642.962 208.375 646.792C264.859 656.416 321.925 634.476 356.816 588.976C374.736 565.607 384.506 531.513 388.062 502.49C389.683 489.258 387.911 474.389 390.068 461.198L390.183 460.515C393.61 460.63 397.037 460.762 400.463 460.911C408.386 461.267 429.504 462.284 435.216 468.666C437.722 471.466 436.451 487.833 436.064 492.494C435.587 529.784 440.609 567.096 461.393 599.348C467.3 608.514 476.883 618.193 484.597 626.143Z"/><path fill="#CC6F16" d="M484.597 626.143C524.463 658.525 562.139 666.933 612.354 666.721C707.611 666.319 758.405 611.385 772.219 520.444C773.649 510.428 774.893 500.386 775.952 490.324C780.422 449.543 781.762 450.6 821.447 450.329C821.836 458.095 822.024 465.869 822.01 473.644C815.262 473.92 806.42 474.198 800.11 476.502C793.469 487.786 791.761 513.231 789.279 526.858C785.306 548.139 781.293 574.06 772.082 593.866C754.828 630.973 717.785 662.746 678.086 673.475C617.009 689.981 541.747 682.182 493.82 637.648C491.058 635.081 485.184 629.798 484.597 626.143Z"/><path fill="#CC6F16" d="M390.183 460.515C393.61 460.63 397.037 460.762 400.463 460.911C408.386 461.267 429.504 462.284 435.216 468.666C437.722 471.466 436.451 487.833 436.064 492.494C424.942 485.778 414.91 485.339 402.541 489.144C399.894 544.579 381.73 590.629 340.053 628.101C309.584 655.497 265.77 664.984 225.772 663.07C211.142 662.393 196.723 659.327 183.084 653.993C176.399 651.443 170.09 648.442 163.696 645.293C160.4 643.67 151.612 637.392 148.659 637.919C147.485 634.788 146.452 631.086 145.471 627.848C166.374 636.079 185.894 642.962 208.375 646.792C264.859 656.416 321.925 634.476 356.816 588.976C374.736 565.607 384.506 531.513 388.062 502.49C389.683 489.258 387.911 474.389 390.068 461.198L390.183 460.515Z"/><path d="M349.102 645.481C357.55 645.488 359.875 651.852 365.586 656.989C393.846 682.41 443.419 686.079 473.496 661.824C475.242 660.416 483.14 653.134 485.421 653.341C499.154 654.586 496.411 664.806 489.38 672.752C464.302 694.702 431.863 701.468 399.389 694.476C379.572 690.209 355.999 678.108 344.201 661.193C339.537 654.506 342.887 649.082 349.102 645.481Z"/><path fill="#F7A227" d="M168.688 347.418C194.429 289.927 236.562 232.598 286.959 193.905C349.581 145.827 432.555 118.24 511.748 124.12C606.19 131.131 690.273 179.918 747.77 254.885C753.277 262.244 764.456 277.208 768.254 285.612C790.976 319.706 801.849 355.842 811.737 395.073C773.133 387.997 732.035 378.32 693.736 373.219C644.261 367.034 594.246 366.451 544.64 371.482C497.392 376.432 474.624 383.077 445.084 422.919C424.445 419.807 409.311 419.149 388.333 421.068C383.504 413.259 379.329 406.621 373.558 399.434C356.696 378.436 331.811 368.363 306.299 362.444C273.12 354.747 239.044 353.148 205.244 350.055C200.174 349.591 194.952 349.256 189.921 348.546C183.412 348.641 175.405 347.76 168.688 347.418Z"/><path fill="#CC6F16" d="M168.688 347.418C194.429 289.927 236.562 232.598 286.959 193.905C349.581 145.827 432.555 118.24 511.748 124.12C606.19 131.131 690.273 179.918 747.77 254.885L746.584 257.499C737.307 246.742 729.275 237.574 718.866 227.768C665.38 177.051 596.11 146.223 522.629 140.434C435.942 133.968 352.352 165.701 287.1 222.069C253.575 250.982 225.127 285.304 202.936 323.611C199.364 329.71 192.229 342.005 189.921 348.546C183.412 348.641 175.405 347.76 168.688 347.418Z"/><path fill="#CC6F16" d="M747.77 254.885C753.277 262.244 764.456 277.208 768.254 285.612C763.142 282.894 750.989 263.343 746.584 257.499L747.77 254.885Z"/><path d="M359.046 249.562C370.276 250.256 383.462 250.348 394.745 250.504C397.09 261.817 400.077 273.465 402.83 284.715C405.223 294.493 407.645 305.314 410.945 314.717C411.783 311.595 413.095 308.244 414.119 305.152C420.141 286.948 425.866 268.831 432.904 250.99C444.072 251.506 455.253 251.676 466.431 251.5L463.342 351.503C455.991 351.511 448.537 351.62 441.21 351.154C440.945 332.202 442.622 310.497 443.517 291.376C443.492 288.4 444.445 279.936 444.666 276.478C441.407 283.279 437.789 295.052 435.324 302.494C430.187 318.487 424.918 334.437 419.516 350.343C412.53 349.952 405.497 350.033 398.497 350.023C392.35 326.276 385.859 301.282 380.306 277.446C379.186 286.032 379.462 294.497 379.315 303.108C379.05 318.51 379.547 334.656 378.521 350.008C371.166 350.05 363.811 349.983 356.458 349.808C356.682 316.379 357.545 282.958 359.046 249.562Z"/><path d="M584.689 253.007C590.081 252.937 596.879 253.359 602.189 253.252C632.906 252.633 668.809 253.289 660.523 295.795C658.596 305.677 650.854 310.819 642.468 315.626C644.564 321.07 648.25 327.905 650.898 333.166C654.814 340.946 658.843 348.989 663.115 356.567L642.876 356.298L636.623 355.992C630.819 343.758 624.91 331.575 618.894 319.444C614.162 319.212 609.425 319.071 604.687 319.022C604.091 331.098 603.404 342.508 602.992 354.656C595.612 354.406 587.899 354.397 580.489 354.28C580.482 320.682 584.328 287.127 584.689 253.007Z"/><path fill="#F7A227" d="M607.53 274.038C617.183 274.005 640.93 270.743 639.472 286.128C639.086 290.199 637.9 291.856 634.925 294.548C626.191 298.98 616.087 297.782 606.46 297.501C606.443 290.238 607.219 281.503 607.53 274.038Z"/><path d="M516.815 252.041C524.793 252.662 533.722 252.524 541.8 252.565C544.673 261.292 547.27 272.945 549.873 282.133C556.658 306.118 563.691 330.032 570.971 353.871C563.264 353.966 555.557 353.931 547.852 353.765C546.387 348.172 544.609 342.696 542.876 337.181C538.052 336.775 533.216 336.538 528.375 336.472C520.435 335.981 513.006 335.493 505.06 335.498C502.657 340.975 500.319 346.956 498.031 352.517C490.571 352.525 482.329 351.968 474.889 351.46C476.372 347.453 478.266 343.049 479.994 339.126C492.639 310.426 503.584 280.432 516.815 252.041Z"/><path fill="#F7A227" d="M526.656 281.842C529.131 284.37 534.475 309.948 535.503 314.621L523.637 314.515L513.746 314.388C517.943 303.497 522.246 292.648 526.656 281.842Z"/><path d="M304.519 245.705C313.759 244.813 326.06 248.142 333.05 254.459C340.205 260.924 341.995 268.775 342.651 277.891C335.733 278.035 328.171 277.663 321.192 277.495C316.256 259.676 294.168 260.896 291.179 275.959C289.231 285.775 309.589 287.603 317.498 289.177C331.888 292.04 344.764 298.783 344.317 316.252C343.431 342.503 324.195 351.79 301.036 351.467C277.782 348.749 268.825 339.465 265.317 316.578C272.421 316.4 279.96 316.509 287.098 316.494C287.459 318.11 288.032 320.494 288.626 322.034C293.369 334.331 312.986 335.312 320.33 325.134C321.537 323.462 322.202 321.301 322.859 319.362C319.988 312.26 316.179 310.654 308.899 308.937C298.094 306.39 288.9 306.403 279.599 299.564C265.394 289.12 266.033 270.955 276.196 258.124C283.041 249.536 294.064 246.829 304.519 245.705Z"/><path d="M670.22 254.007C693.657 254.056 717.092 254.461 740.517 255.221C740.544 262.449 740.365 269.676 739.979 276.894C732.465 276.958 723.214 276.45 715.655 276.02C715.346 295.311 714.804 314.597 714.028 333.875L713.325 358.433C705.893 358.519 697.858 358.189 690.383 358.012C689.685 347.32 690.969 332.42 691.375 321.561C691.946 306.308 692.17 290.711 693.047 275.516C685.304 275.441 677.354 275.142 669.596 274.944C669.465 267.729 669.834 261.225 670.22 254.007Z"/><path fill="#CC6F16" d="M868.038 707.479C885.739 708.458 903.446 709.314 921.159 710.045C916.342 722.729 879.327 788.371 870.625 789.891L817.035 790.953C824.914 779.995 832.669 769.2 840.097 757.911C850.989 741.357 859.275 725.123 868.038 707.479Z"/><path fill="#CC6F16" d="M915.491 518.951C930.257 521.36 951.785 522.549 967.089 523.6C965.474 546.699 962.675 569.701 958.701 592.514C958.047 596.402 957.278 602.392 955.848 606.075C955.505 606.96 955.28 606.75 954.125 607.081C936.945 607.548 919.761 607.922 902.576 608.203C909.039 584.137 915.083 543.794 915.491 518.951Z"/><path fill="#CC6F16" d="M901.381 614.457C918.533 615.666 935.694 616.735 952.864 617.664C948.292 643.572 936.906 673.378 926.453 697.687C925.993 698.756 924.155 698.477 923.125 698.493C906.672 698.47 888.38 699.496 871.702 699.868C884.978 672.1 894.016 644.367 901.381 614.457Z"/><path fill="#CC6F16" d="M914.425 426.397C927.754 426.667 951.746 427.639 964.421 429.102C965.152 438.633 970.318 507.928 966.488 512.063C949.636 512.205 932.785 512.519 915.94 513.005C917.439 488.035 917.537 451.653 914.425 426.397Z"/><path fill="#CC6F16" d="M896.63 337.465C912.309 338.955 929.883 339.439 945.67 340.106C951.809 362.969 961.221 395.247 962.611 418.414C946.285 418.354 929.96 418.547 913.641 418.992C913.092 415.953 912.617 412.64 912.217 409.568C909.019 385 902.9 361.384 896.63 337.465Z"/><path fill="#CC6F16" d="M810.159 798.445C812.573 798.515 815.155 798.737 817.57 798.949C832.873 800.292 848.149 800.885 863.494 801.528C851.502 818.273 816.233 853.68 799.125 866.448L790.886 866.911C773.61 867.503 756.276 868.705 739.067 869.136C766.783 844.04 786.144 827.444 810.159 798.445Z"/><path fill="#CC6F16" d="M861.442 252.477C877.592 252.455 894.608 253.969 910.79 254.564C913.971 259.873 916.864 265.348 919.459 270.967C922.976 278.471 942.03 323.415 941.372 327.958L940.465 328.429C925.146 328.706 909.768 330.407 894.365 330.557C884.093 299.687 875.981 281.373 861.442 252.477Z"/><path fill="#CC6F16" d="M809.309 173.899C825.689 175.662 842.122 176.891 858.582 177.584C869 188.176 898.701 229.602 903.813 243.011L903.341 243.871C888.201 244.181 873.066 244.732 857.943 245.524C848.068 228.09 838.027 210.798 825.911 194.782C820.556 187.704 814.892 180.803 809.309 173.899Z"/><path fill="#CC6F16" d="M731.536 874.956C750.232 874.985 769.106 875.56 787.937 875.61C764.937 892.129 749.016 902.233 723.671 915.213C722.324 915.906 716.987 918.713 716.086 918.739C702.599 919.13 683.997 917.512 670.764 916.377C685.874 906.538 701.556 897.529 716.032 886.719C721.233 882.836 726.319 878.819 731.536 874.956Z"/><path fill="#CC6F16" d="M751.606 118.011C757.826 118.217 766.517 119.563 772.891 120.323C781.251 121.282 789.632 122.045 798.027 122.611C804.964 127.207 846.315 160.621 846.734 165.876L804.178 167.231C797.355 160.634 790.922 153.515 784.078 146.859C773.632 136.826 762.799 127.203 751.606 118.011Z"/><path fill="#CC6F16" d="M660.756 922.056C671.548 923.04 689.038 923.775 699.071 925.726C673.895 938.434 631.574 948.462 603.774 954.158C594.086 956.143 581.895 957.153 573.238 959.114C571.785 959.018 570.591 959.113 569.386 958.358L569.445 957.514C606.061 946.778 626.546 939.446 660.756 922.056Z"/><path fill="#CC6F16" d="M692.212 78.199C696.922 78.0105 718.148 78.1887 721.444 79.3098C740.928 85.9351 768.084 102.048 784.619 113.487C771.67 113.774 755.657 111.889 742.251 111.321C736.745 107.392 731.559 103.236 725.88 99.2711C714.625 91.4143 704.055 85.0071 692.212 78.199Z"/><path fill="#CC6F16" d="M644.494 54.5582C652.57 55.0526 701.127 68.2453 704.682 72.2975C697.577 72.7918 690.411 72.3595 682.846 72.9585C670.503 66.8828 656.374 61.1896 644.494 54.5582Z"/><path fill="#8F5C3B" d="M558.002 960.3C561.856 959.216 565.537 958.393 569.445 957.514L569.386 958.358C570.591 959.113 571.785 959.018 573.238 959.114C567.548 960.021 563.738 960.61 558.002 960.3Z"/></svg>